<svg xmlns="http://www.w3.org/2000/svg" xmlns:xlink="http://www.w3.org/1999/xlink" viewBox="0 0 474.04 401.84"><defs><style>.cls-1{fill:#fff;}.cls-2{fill:url(#linear-gradient);}.cls-3{fill:#e01d0e;}.cls-4{fill:url(#linear-gradient-2);}.cls-5{opacity:0.5;}.cls-6{fill:url(#linear-gradient-3);}.cls-7{opacity:0.7;}.cls-8{fill:url(#linear-gradient-4);}</style><linearGradient id="linear-gradient" x1="37.18" y1="131.98" x2="442.38" y2="131.98" gradientUnits="userSpaceOnUse"><stop offset="0" stop-color="#cc403b"/><stop offset="0.22" stop-color="#f98942"/><stop offset="0.35" stop-color="#f88741"/><stop offset="0.39" stop-color="#f6803e"/><stop offset="0.43" stop-color="#f17539"/><stop offset="0.45" stop-color="#eb6431"/><stop offset="0.48" stop-color="#e34e28"/><stop offset="0.49" stop-color="#df4323"/><stop offset="0.5" stop-color="#e34e28"/><stop offset="0.52" stop-color="#eb6431"/><stop offset="0.55" stop-color="#f17539"/><stop offset="0.59" stop-color="#f6803e"/><stop offset="0.64" stop-color="#f88741"/><stop offset="0.78" stop-color="#f98942"/><stop offset="0.83" stop-color="#f07e41"/><stop offset="0.93" stop-color="#d7613e"/><stop offset="0.96" stop-color="#cf583d"/></linearGradient><linearGradient id="linear-gradient-2" x1="37.85" y1="127.39" x2="441.7" y2="127.39" gradientUnits="userSpaceOnUse"><stop offset="0" stop-color="#1d8bb4"/><stop offset="0.02" stop-color="#2391b6"/><stop offset="0.12" stop-color="#39a9bc"/><stop offset="0.22" stop-color="#48b9c0"/><stop offset="0.33" stop-color="#51c3c2"/><stop offset="0.48" stop-color="#54c6c3"/><stop offset="0.62" stop-color="#50c2c2"/><stop offset="0.77" stop-color="#44b5bf"/><stop offset="0.93" stop-color="#31a0b9"/><stop offset="1" stop-color="#2593b6"/></linearGradient><linearGradient id="linear-gradient-3" x1="2083.3" y1="-3125" x2="2287.48" y2="-3048.19" gradientTransform="translate(1154.12 -3492.07) rotate(159.84)" gradientUnits="userSpaceOnUse"><stop offset="0" stop-color="#fff" stop-opacity="0"/><stop offset="0.06" stop-color="#cae3e7" stop-opacity="0.21"/><stop offset="0.16" stop-color="#82bdc7" stop-opacity="0.49"/><stop offset="0.25" stop-color="#499fae" stop-opacity="0.71"/><stop offset="0.34" stop-color="#21899c" stop-opacity="0.87"/><stop offset="0.43" stop-color="#087c92" stop-opacity="0.97"/><stop offset="0.51" stop-color="#00788e"/></linearGradient><linearGradient id="linear-gradient-4" x1="-306.88" y1="-378.42" x2="-103.8" y2="-302.02" gradientTransform="translate(625.04 339.68) rotate(-20.62)" gradientUnits="userSpaceOnUse"><stop offset="0" stop-color="#fff" stop-opacity="0"/><stop offset="0.07" stop-color="#faffff" stop-opacity="0.12"/><stop offset="0.21" stop-color="#ecffff" stop-opacity="0.44"/><stop offset="0.43" stop-color="#d7ffff" stop-opacity="0.93"/><stop offset="0.45" stop-color="#d4ffff"/><stop offset="0.51" stop-color="#daffff" stop-opacity="0.86"/><stop offset="0.65" stop-color="#e7ffff" stop-opacity="0.58"/><stop offset="0.77" stop-color="#f1ffff" stop-opacity="0.36"/><stop offset="0.87" stop-color="#f9ffff" stop-opacity="0.2"/><stop offset="0.95" stop-color="#fdffff" stop-opacity="0.11"/><stop offset="1" stop-color="#fff" stop-opacity="0.07"/></linearGradient></defs><title>wisedatAsset 1logo</title><g id="Layer_2" data-name="Layer 2"><g id="Layer_1-2" data-name="Layer 1"><path class="cls-1" d="M113.08,315.24c0,.51-.84,3.46-1,4.23L93.43,393c-1.65,4.55-4.48,8.82-12.68,8.82-7.22,0-11.85-4.27-12.45-8.82l-9.79-41.31L56.45,343l-2.19,8.75s-7.11,30.53-10.17,41.58c-1.23,4.45-6.8,8.55-12.22,8.55-6.72,0-11.64-3.61-12.74-8.92C14.82,372.09,0,318.77,0,315.36c0-4.38,3.5-7,8.75-7,7.38,0,10.5,4,11.15,6.73l9,38.7c1,4.38,2.45,11.33,4,18.53a184.24,184.24,0,0,1,4.38-18.53L47,314.27c.52-2.06,3-6.9,10.43-6.9,6.23,0,9.6,4.56,10.12,6.61L77,353.77c1.16,4.89,2.83,12.23,4.38,19.44,1.67-7.08,3.22-14.55,4.38-19.44l9.33-38.53a9.22,9.22,0,0,1,10.74-6.9C111.35,309.16,113.08,311,113.08,315.24Z"/><path class="cls-1" d="M133.66,331.56c-5.32,0-9.27,1.4-9.27,4.09v60.94c0,2.68,3.62,4.09,9.27,4.09,5.33,0,9.28-1.41,9.28-4.09V335.65C142.94,333,139.32,331.56,133.66,331.56Z"/><path class="cls-1" d="M199.16,337.81c0,2.84-3.09,10.17-5.53,10.17-1.42,0-5-2.7-11.07-2.7-4.24,0-6.82,1.29-6.82,4.5,0,5.67,7.72,7,14.54,10.17,5.79,2.83,11.2,7.59,11.2,17.76,0,13.13-9.14,22-25.22,22-9.66,0-21.37-3.22-21.37-8.75,0-3.35,4.25-9.91,6.82-9.91,1.93,0,6.18,3.6,13,3.6,4.89,0,7.47-1.93,7.47-5.41,0-4.89-5.28-6.17-11.07-8.49-6.31-2.45-14.67-6.43-14.67-19.3,0-13.39,9.13-21.11,23.42-21.11C187.32,330.35,199.16,332.41,199.16,337.81Z"/><path class="cls-1" d="M268.53,363.55a8.34,8.34,0,0,1-1.85,4.91,6.78,6.78,0,0,1-4.72,2.69H229.15c.9,10.29,6.43,13.51,14.8,13.51,8.1,0,13.77-4,15.57-4,2.83,0,6.69,7.21,6.69,9.78,0,6.44-16,9.27-23.16,9.27-23.3,0-33.59-13.52-33.59-34.24,0-25.35,12.87-35.13,31.27-35.13C260.93,330.35,268.53,345.66,268.53,363.55Zm-39.38-5.14H250c0-7.47-2.84-13-9.27-13C235.32,345.41,230.69,348.5,229.15,358.41Z"/><path class="cls-1" d="M357.45,353.64c0,29.09-14.67,45.05-41.18,45.05H287.44c-3.6,0-5.15-1.55-5.15-5.15V313.75c0-3.6,1.55-5.15,5.15-5.15h28.83C342.78,308.6,357.45,324.56,357.45,353.64Zm-55.21-28.18v56.37h14c13.77,0,20.85-9.91,20.85-28.19s-7.08-28.18-20.85-28.18Z"/><path class="cls-1" d="M424.24,351.84V376c0,13.25,1.54,16,1.54,18.66,0,3.09-11.19,4.12-14.41,4.12-4.12,0-4.38-5.41-5.15-8.88-.9,1.67-7.08,9.78-18.92,9.78-13.9,0-19-8.24-19-18.79S372.5,357,405.19,357v-4.25c0-4.89-3-7.33-10-7.33-9.39,0-14.93,4.12-16.47,4.12-2.7,0-6.69-7.6-6.69-10.3,0-4.37,10.29-8.88,24.58-8.88C416.9,330.35,424.24,339.36,424.24,351.84ZM387.17,379c0,3.21,2.19,5.66,6.44,5.66,4.89,0,9.52-3.47,11.58-8.11v-7.08C393,369.47,387.17,372.82,387.17,379Z"/><path class="cls-1" d="M461.94,319.15v12.23h6.31c2.7,0,3.86,1.93,3.86,6.43V340c0,4.51-1.16,6.44-3.86,6.44h-6.31v32.69c0,3.86,1.29,5.53,4.64,5.53,1.15,0,2.7-.51,3.47-.51,4.27,0,4,6.32,4,9.26,0,5.92-8.37,6.31-12.36,6.31-12.09,0-18.78-6.57-18.78-20.85V346.44h-2.06c-2.71,0-3.86-1.93-3.86-6.44v-2.19c0-4.5,1.15-6.43,3.86-6.43h2.06l1.67-12.23c.38-2.7,3.72-4.11,8.46-4.11C457,315,461.94,315.83,461.94,319.15Z"/><path class="cls-2" d="M370.17,200.59c-1.67,2.09-3.44,4.07-5,6.22a58.25,58.25,0,0,1-95.23.8c-13.19-18.16-26-36.56-39.1-54.82-4.85-6.77-9.85-13.43-15-20.49L178.6,80.07c-9.07-12.43-23.55-12-32.58.53-17.68,24.5-35.2,49.1-52.82,73.64-7.34,10.23-14.5,20.59-22.2,30.54-5,6.43-12.08,8-19.87,6.09s-11.83-7.38-13.51-15,1.58-13.52,5.69-19.25C67.5,122.88,91.6,89,116,55.43c18.8-25.91,56.59-31.19,81.65-11.28,6.76,5.37,44.26,57.07,44.26,57.07q28.64,40.17,57.5,80.19c4.41,6.14,9.37,11.4,17.76,11.26,7.5.27,12.62-3.89,16.84-9.39,3.44-4.48,6.38-9.36,9.91-13.78l26.77-37.65c2.28-3.07,4-5.35,5.7-7.69C386.9,109.5,395.51,94.4,408,80.21c4.87-6.57,11.86-9.36,20-7.39,8.42,2,14.19,7.68,14.36,16.2a31.46,31.46,0,0,1-5,16.91c-9.8,14.88-20.57,29.12-31,43.58Z"/><path class="cls-3" d="M135.07,252.14c-55.28,0-94.81-70.37-96.51-73.44a10.23,10.23,0,0,1,17.91-9.91h0c.36.66,37,65.63,81.45,62.79,31.56-2,62.58-39.18,89.71-107.45,32-80.5,69-122.24,110.11-124.07,59.07-2.65,100.72,78.54,102.46,82a10.23,10.23,0,1,1-18.27,9.21c-.36-.72-37.45-72.83-83.31-70.76C306.78,22,275,60.39,246.65,131.68,215.94,209,179.78,249.44,139.18,252,137.8,252.09,136.42,252.14,135.07,252.14Z"/><path class="cls-4" d="M354.57,50.82a150.23,150.23,0,0,0-60.44,13.06c-21.7,9.48-44.38,24.81-67.18,47.84s-44.28,37-63.48,45.22-36.27,10.89-50.73,10.9h0c-15,0-26.18-4-35.57-5.78-4.33-.81-7.34-2.83-9.36-3.81-1-.49-1.74-.88-2.15-1.1l-.39-.22,0,0a18.06,18.06,0,0,0-18.75,30.87,100.79,100.79,0,0,0,19,8.45,146.33,146.33,0,0,0,47.3,7.73h.1c18.92,0,41.1-3.6,64.88-13.83s49.22-27.06,74.89-53c20.05-20.25,38.91-32.69,56-40.17s32.49-10,46.08-10a106.09,106.09,0,0,1,24.24,2.81c10.82,2.53,18.34,6.38,25.46,9.48a38.69,38.69,0,0,1,6.58,3.86c.71.46,1.21.81,1.49,1l.26.18h0a18.06,18.06,0,0,0,22-28.67c-.88-.67-8.87-6.73-22.65-12.76a144,144,0,0,0-24.87-8.27,142,142,0,0,0-32.48-3.76h-.1"/><g class="cls-5"><path class="cls-6" d="M57,182.92s37.24,18.84,92,6.94c33.5-7.27,94.07-46.27,126.71-76.37a293.26,293.26,0,0,1-50.18,48.13c-21.21,16-48,31.63-78.27,38.66-43.46,10.11-80.35-3-80.35-3Z"/></g><g class="cls-7"><path class="cls-8" d="M204.57,136.05c32.4-30.36,82.17-65.93,127.61-74.91,42.5-8.4,89.37,17.63,89.37,17.63s-2.93-13.64-3.47-13.88c-15.63-7-45.07-18.72-88.84-11.68-36.51,5.87-68.29,26.54-90,46.39A364.89,364.89,0,0,0,204.57,136.05Z"/></g><path class="cls-3" d="M423,71.65c-6.23,0-11.57,2.88-15.55,8.17s-7.78,10.45-11.62,15.71c3,1.26,5.64,2.53,7.88,3.7,3.05,1.59,5.36,3,6.82,3.93.73.47,1.25.83,1.54,1l.26.19a18.89,18.89,0,0,0,26.16-3.4,18.25,18.25,0,0,0-3.4-25.84l-.65-.48a24.07,24.07,0,0,0-6.24-2.38,22.78,22.78,0,0,0-5.2-.63"/><path class="cls-3" d="M54.94,153.72a18.43,18.43,0,0,0-9.64,34.15,75.65,75.65,0,0,0,6.84,3.59,23.71,23.71,0,0,0,4,.35,17.24,17.24,0,0,0,14.19-7l16.23-21s-7.36-1.32-10-2.21A86.39,86.39,0,0,1,67,157.73c-1-.5-1.77-.89-2.2-1.13l-.39-.22h0a18.34,18.34,0,0,0-9.49-2.65"/><path class="cls-3" d="M399.16,27.1c24.72,23.1,41.48,53.41,41.48,55.14,0,5.66.08,11-5,13.56a10.23,10.23,0,0,1-13.75-4.53c-.22-.44-14.48-28.17-36.17-48.78"/><path class="cls-3" d="M83.38,231.88c-26.79-21-47.18-52.43-45.44-54.17,4-4-.32-10.18,4.63-12.92a10.24,10.24,0,0,1,13.9,4h0c.24.43,16.11,28.59,39.56,47.07"/></g></g></svg>