<svg xmlns="http://www.w3.org/2000/svg" xmlns:xlink="http://www.w3.org/1999/xlink" viewBox="0 0 292.54 114"><defs><style>.cls-1{fill:url(#linear-gradient);}.cls-2{fill:url(#linear-gradient-2);}.cls-3{fill:url(#linear-gradient-3);}.cls-4{fill:url(#linear-gradient-4);}.cls-5{fill:url(#linear-gradient-5);}.cls-6{fill:url(#linear-gradient-6);}.cls-7{fill:url(#linear-gradient-7);}.cls-8{fill:url(#linear-gradient-8);}.cls-9{fill:url(#linear-gradient-9);}.cls-10{fill:url(#linear-gradient-10);}.cls-11{fill:url(#linear-gradient-11);}.cls-12{fill:url(#linear-gradient-12);}.cls-13{fill:url(#linear-gradient-13);}.cls-14{fill:url(#linear-gradient-14);}.cls-15{fill:url(#linear-gradient-15);}.cls-16{fill:url(#linear-gradient-16);}.cls-17{fill:url(#linear-gradient-17);}.cls-18{fill:url(#linear-gradient-18);}.cls-19{fill:url(#linear-gradient-19);}.cls-20{fill:url(#linear-gradient-20);}.cls-21{fill:url(#linear-gradient-21);}.cls-22{fill:url(#linear-gradient-22);}.cls-23{fill:url(#linear-gradient-23);}.cls-24{fill:url(#linear-gradient-24);}.cls-25{fill:url(#linear-gradient-25);}.cls-26{fill:url(#linear-gradient-26);}.cls-27{fill:url(#linear-gradient-27);}.cls-28{fill:url(#linear-gradient-28);}.cls-29{fill:url(#linear-gradient-29);}.cls-30{fill:url(#linear-gradient-30);}.cls-31{fill:url(#linear-gradient-31);}.cls-32{fill:url(#linear-gradient-32);}.cls-33{fill:url(#linear-gradient-33);}.cls-34{fill:url(#linear-gradient-34);}.cls-35{fill:url(#linear-gradient-35);}.cls-36{fill:url(#linear-gradient-36);}.cls-37{fill:url(#linear-gradient-37);}.cls-38{fill:url(#linear-gradient-38);}.cls-39{fill:url(#linear-gradient-39);}.cls-40{fill:url(#linear-gradient-40);}.cls-41{fill:url(#linear-gradient-41);}.cls-42{fill:url(#linear-gradient-42);}.cls-43{fill:url(#linear-gradient-43);}.cls-44{fill:url(#linear-gradient-44);}.cls-45{fill:url(#linear-gradient-45);}.cls-46{fill:url(#linear-gradient-46);}.cls-47{fill:url(#linear-gradient-47);}.cls-48{fill:url(#linear-gradient-48);}.cls-49{fill:url(#linear-gradient-49);}.cls-50{fill:url(#linear-gradient-50);}.cls-51{fill:url(#linear-gradient-51);}.cls-52{fill:url(#linear-gradient-52);}.cls-53{fill:url(#linear-gradient-53);}.cls-54{fill:url(#linear-gradient-54);}.cls-55{fill:url(#linear-gradient-55);}.cls-56{fill:url(#linear-gradient-56);}.cls-57{fill:url(#linear-gradient-57);}.cls-58{fill:url(#linear-gradient-58);}.cls-59{fill:url(#linear-gradient-59);}.cls-60{fill:url(#linear-gradient-60);}.cls-61{fill:url(#linear-gradient-61);}</style><linearGradient id="linear-gradient" x1="265.97" y1="13.4" x2="265.97" y2="131.84" gradientUnits="userSpaceOnUse"><stop offset="0" stop-color="#58c4c3"/><stop offset="1" stop-color="#2594b7"/></linearGradient><linearGradient id="linear-gradient-2" x1="258.43" y1="50.69" x2="255.93" y2="79.31" gradientUnits="userSpaceOnUse"><stop offset="0" stop-color="#4fbfc1" stop-opacity="0"/><stop offset="0.39" stop-color="#43acb3" stop-opacity="0.42"/><stop offset="0.81" stop-color="#3798a6" stop-opacity="0.84"/><stop offset="1" stop-color="#3291a1"/></linearGradient><linearGradient id="linear-gradient-3" x1="257.26" y1="37.57" x2="287.43" y2="37.57" gradientUnits="userSpaceOnUse"><stop offset="0" stop-color="#fff" stop-opacity="0"/><stop offset="0.09" stop-color="#fff" stop-opacity="0.12"/><stop offset="0.29" stop-color="#fff" stop-opacity="0.43"/><stop offset="0.46" stop-color="#fff" stop-opacity="0.7"/><stop offset="0.53" stop-color="#fff" stop-opacity="0.68"/><stop offset="0.62" stop-color="#fff" stop-opacity="0.62"/><stop offset="0.71" stop-color="#fff" stop-opacity="0.53"/><stop offset="0.81" stop-color="#fff" stop-opacity="0.39"/><stop offset="0.92" stop-color="#fff" stop-opacity="0.22"/><stop offset="1" stop-color="#fff" stop-opacity="0.07"/></linearGradient><linearGradient id="linear-gradient-4" x1="98.8" y1="33.9" x2="98.8" y2="114" xlink:href="#linear-gradient"/><linearGradient id="linear-gradient-5" x1="40.04" y1="47.39" x2="100.38" y2="47.39" xlink:href="#linear-gradient-3"/><linearGradient id="linear-gradient-6" x1="72.68" y1="-5.73" x2="71.55" y2="151.88" xlink:href="#linear-gradient"/><linearGradient id="linear-gradient-7" x1="40.04" y1="40.73" x2="100.38" y2="40.73" xlink:href="#linear-gradient-3"/><linearGradient id="linear-gradient-8" x1="230.58" y1="-4.59" x2="229.44" y2="153.02" xlink:href="#linear-gradient"/><linearGradient id="linear-gradient-9" x1="49.46" y1="26.25" x2="50.62" y2="87.87" gradientUnits="userSpaceOnUse"><stop offset="0" stop-color="#319ba0"/><stop offset="0.12" stop-color="#3299a2" stop-opacity="0.93"/><stop offset="0.33" stop-color="#3692a6" stop-opacity="0.76"/><stop offset="0.61" stop-color="#3d87ae" stop-opacity="0.47"/><stop offset="0.94" stop-color="#4579b8" stop-opacity="0.07"/><stop offset="0.99" stop-color="#4776ba" stop-opacity="0"/></linearGradient><linearGradient id="linear-gradient-10" x1="232.65" y1="74" x2="230.39" y2="99.82" gradientUnits="userSpaceOnUse"><stop offset="0.06" stop-color="#338ca0"/><stop offset="0.17" stop-color="#338da2" stop-opacity="0.93"/><stop offset="0.38" stop-color="#3290a6" stop-opacity="0.76"/><stop offset="0.64" stop-color="#3095ad" stop-opacity="0.47"/><stop offset="0.95" stop-color="#2e9bb6" stop-opacity="0.07"/><stop offset="1" stop-color="#2e9cb8" stop-opacity="0"/></linearGradient><linearGradient id="linear-gradient-11" x1="168.67" y1="0" x2="168.67" y2="114" xlink:href="#linear-gradient"/><linearGradient id="linear-gradient-12" x1="144.81" y1="-5.21" x2="143.68" y2="152.4" xlink:href="#linear-gradient"/><linearGradient id="linear-gradient-13" x1="128.95" y1="3.71" x2="170.93" y2="3.71" xlink:href="#linear-gradient-3"/><linearGradient id="linear-gradient-14" x1="11.8" y1="-6.16" x2="10.67" y2="151.44" xlink:href="#linear-gradient"/><linearGradient id="linear-gradient-15" x1="-2.41" y1="10.02" x2="25.75" y2="10.02" xlink:href="#linear-gradient-3"/><linearGradient id="linear-gradient-16" x1="181.24" y1="47.63" x2="181.24" y2="114" xlink:href="#linear-gradient"/><linearGradient id="linear-gradient-17" x1="183.88" y1="-4.93" x2="182.75" y2="152.68" xlink:href="#linear-gradient"/><linearGradient id="linear-gradient-18" x1="182.83" y1="36" x2="183.43" y2="68.16" gradientUnits="userSpaceOnUse"><stop offset="0.24" stop-color="#319ba0"/><stop offset="0.33" stop-color="#3299a2" stop-opacity="0.93"/><stop offset="0.49" stop-color="#3692a6" stop-opacity="0.76"/><stop offset="0.71" stop-color="#3d87ae" stop-opacity="0.47"/><stop offset="0.96" stop-color="#4579b8" stop-opacity="0.07"/><stop offset="1" stop-color="#4776ba" stop-opacity="0"/></linearGradient><linearGradient id="linear-gradient-19" x1="176.81" y1="37.53" x2="245.23" y2="37.53" xlink:href="#linear-gradient-3"/><linearGradient id="linear-gradient-20" x1="176.55" y1="31.55" x2="307.53" y2="196.79" gradientTransform="translate(-7.07 -2.97) rotate(-0.11)" gradientUnits="userSpaceOnUse"><stop offset="0.15" stop-color="#f68a46"/><stop offset="0.83" stop-color="#de4626"/></linearGradient><linearGradient id="linear-gradient-21" x1="176.81" y1="47.26" x2="245.19" y2="47.26" xlink:href="#linear-gradient-3"/><linearGradient id="linear-gradient-22" x1="203.95" y1="9.86" x2="334.69" y2="174.81" xlink:href="#linear-gradient-20"/><linearGradient id="linear-gradient-23" x1="176.8" y1="50.66" x2="245.19" y2="50.66" xlink:href="#linear-gradient-3"/><linearGradient id="linear-gradient-24" x1="205.05" y1="8.97" x2="335.81" y2="173.95" xlink:href="#linear-gradient-20"/><linearGradient id="linear-gradient-25" x1="176.81" y1="53.92" x2="245.19" y2="53.92" xlink:href="#linear-gradient-3"/><linearGradient id="linear-gradient-26" x1="206.03" y1="8.22" x2="336.76" y2="173.15" xlink:href="#linear-gradient-20"/><linearGradient id="linear-gradient-27" x1="176.8" y1="48.83" x2="245.2" y2="48.83" xlink:href="#linear-gradient-3"/><linearGradient id="linear-gradient-28" x1="204.47" y1="9.44" x2="335.23" y2="174.41" xlink:href="#linear-gradient-20"/><linearGradient id="linear-gradient-29" x1="176.8" y1="52.23" x2="245.19" y2="52.23" xlink:href="#linear-gradient-3"/><linearGradient id="linear-gradient-30" x1="205.53" y1="8.6" x2="336.28" y2="173.56" xlink:href="#linear-gradient-20"/><linearGradient id="linear-gradient-31" x1="176.81" y1="37.27" x2="245.2" y2="37.27" xlink:href="#linear-gradient-3"/><linearGradient id="linear-gradient-32" x1="177.27" y1="31" x2="307.99" y2="195.92" xlink:href="#linear-gradient-20"/><linearGradient id="linear-gradient-33" x1="176.8" y1="55.38" x2="245.19" y2="55.38" xlink:href="#linear-gradient-3"/><linearGradient id="linear-gradient-34" x1="206.43" y1="7.88" x2="337.2" y2="172.86" xlink:href="#linear-gradient-20"/><linearGradient id="linear-gradient-35" x1="176.81" y1="37.43" x2="245.19" y2="37.43" xlink:href="#linear-gradient-3"/><linearGradient id="linear-gradient-36" x1="176.83" y1="31.34" x2="307.61" y2="196.34" xlink:href="#linear-gradient-20"/><linearGradient id="linear-gradient-37" x1="206.8" y1="7.6" x2="337.55" y2="172.56" gradientTransform="translate(-7.07 -2.97) rotate(-0.11)" gradientUnits="userSpaceOnUse"><stop offset="0.03" stop-color="#f68a46"/><stop offset="1" stop-color="#de4626"/></linearGradient><linearGradient id="linear-gradient-38" x1="176.81" y1="56.7" x2="245.19" y2="56.7" xlink:href="#linear-gradient-3"/><linearGradient id="linear-gradient-39" x1="205.29" y1="8.79" x2="336.04" y2="173.75" xlink:href="#linear-gradient-37"/><linearGradient id="linear-gradient-40" x1="176.81" y1="51.44" x2="245.19" y2="51.44" xlink:href="#linear-gradient-3"/><linearGradient id="linear-gradient-41" x1="206.22" y1="8.05" x2="336.97" y2="173.02" xlink:href="#linear-gradient-37"/><linearGradient id="linear-gradient-42" x1="176.81" y1="54.61" x2="245.19" y2="54.61" xlink:href="#linear-gradient-3"/><linearGradient id="linear-gradient-43" x1="205.79" y1="8.39" x2="336.54" y2="173.35" xlink:href="#linear-gradient-37"/><linearGradient id="linear-gradient-44" x1="176.81" y1="53.13" x2="245.19" y2="53.13" xlink:href="#linear-gradient-3"/><linearGradient id="linear-gradient-45" x1="176.5" y1="31.63" x2="307.05" y2="196.34" xlink:href="#linear-gradient-37"/><linearGradient id="linear-gradient-46" x1="176.81" y1="37.55" x2="245.15" y2="37.55" xlink:href="#linear-gradient-3"/><linearGradient id="linear-gradient-47" x1="177.05" y1="31.17" x2="307.8" y2="196.13" xlink:href="#linear-gradient-37"/><linearGradient id="linear-gradient-48" x1="176.81" y1="37.35" x2="245.2" y2="37.35" xlink:href="#linear-gradient-3"/><linearGradient id="linear-gradient-49" x1="176.68" y1="31.47" x2="307.35" y2="196.33" xlink:href="#linear-gradient-37"/><linearGradient id="linear-gradient-50" x1="176.81" y1="37.48" x2="245.19" y2="37.48" xlink:href="#linear-gradient-3"/><linearGradient id="linear-gradient-51" x1="177.55" y1="31.2" x2="184.19" y2="39.57" xlink:href="#linear-gradient-37"/><linearGradient id="linear-gradient-52" x1="176.82" y1="37.24" x2="204.02" y2="37.24" xlink:href="#linear-gradient-3"/><linearGradient id="linear-gradient-53" x1="204.22" y1="9.64" x2="334.97" y2="174.6" xlink:href="#linear-gradient-37"/><linearGradient id="linear-gradient-54" x1="176.81" y1="48.08" x2="245.19" y2="48.08" xlink:href="#linear-gradient-3"/><linearGradient id="linear-gradient-55" x1="203.62" y1="10.12" x2="334.37" y2="175.08" xlink:href="#linear-gradient-37"/><linearGradient id="linear-gradient-56" x1="176.81" y1="46.33" x2="245.19" y2="46.33" xlink:href="#linear-gradient-3"/><linearGradient id="linear-gradient-57" x1="204.76" y1="9.21" x2="335.51" y2="174.17" xlink:href="#linear-gradient-37"/><linearGradient id="linear-gradient-58" x1="176.81" y1="49.72" x2="245.19" y2="49.72" xlink:href="#linear-gradient-3"/><linearGradient id="linear-gradient-59" x1="257.26" y1="41.59" x2="287.43" y2="41.59" xlink:href="#linear-gradient-3"/><linearGradient id="linear-gradient-60" x1="176.25" y1="23.99" x2="321.01" y2="158.54" gradientTransform="matrix(1, 0, 0, 1, 0, 0)" xlink:href="#linear-gradient-20"/><linearGradient id="linear-gradient-61" x1="176.81" y1="46.75" x2="245.19" y2="46.75" xlink:href="#linear-gradient-3"/></defs><title>Asset 1</title><g id="Layer_2" data-name="Layer 2"><g id="Layer_1-2" data-name="Layer 1"><path class="cls-1" d="M276.52,37.59a24.17,24.17,0,0,1,10.91,2s-4-4-12.07-4-12.06,4-12.06,4l-5.75,6.93h0l-3.08,3.72-9.95,12L254.76,79l15.15-18.28,17.52-21.15A24.17,24.17,0,0,0,276.52,37.59Zm-19.26,10h0c6.16-7,12.71-9.46,18.12-10C270,38.17,263.42,40.59,257.26,47.63Z"/><polygon class="cls-2" points="254.82 50.5 245.14 62.19 255.11 78.5 269.84 60.72 254.82 50.5"/><path class="cls-3" d="M275.36,35.56c8.05,0,12.07,4,12.07,4S285.42,35.56,275.36,35.56Z"/><path class="cls-4" d="M97.61,43.45l-.06-.06,2.51,3.76A25.24,25.24,0,0,0,97.61,43.45Z"/><path class="cls-5" d="M100.38,47.63l-.32-.48c.08.14.16.27.23.41Z"/><path class="cls-6" d="M102.88,54.27a29,29,0,0,0-2.59-6.71c-.07-.14-.15-.27-.23-.41l-2.51-3.76a23.82,23.82,0,0,0-10-7q-6.33-2.51-15.88-2.5a115,115,0,0,0-18,1.36c-3.68.58-6.88,1.2-9.69,1.84-1.54.35-3,.71-4.27,1.08v72.36S42.05,114,50.09,114,61,110.54,61,110.54V52.71c1.33-.19,2.85-.36,4.56-.5S68.88,52,70.4,52q7.41,0,10.11,4.28T83.22,70.8v39.74S84.29,114,94.34,114a16.79,16.79,0,0,0,10.1-3.46V68.23A57.84,57.84,0,0,0,102.88,54.27Z"/><path class="cls-7" d="M82.27,37.57c7.51,2.5,17.14,9.36,18,10-.07-.14-.15-.27-.23-.41l-2.51-3.76a23.82,23.82,0,0,0-10-7q-6.33-2.51-15.88-2.5a115,115,0,0,0-18,1.36c-3.68.58-6.88,1.2-9.69,1.84C52.65,36.17,72.91,34.45,82.27,37.57Z"/><path class="cls-8" d="M205,110s0,4,10.05,4a27.82,27.82,0,0,0,14.08-4l25.66-31L244.52,62.24Z"/><path class="cls-9" d="M61,98V52.71s-15.46.73-21.23,2.85V98Z"/><polygon class="cls-10" points="234.63 74.18 246.58 88.88 237.04 100.4 215.37 97.42 234.63 74.18"/><path class="cls-11" d="M168.65,3.13h-.05l.14.21Z"/><path class="cls-12" d="M141.51,26.35a11.21,11.21,0,0,1,2.14-4.41A9.93,9.93,0,0,1,147.78,19,17.16,17.16,0,0,1,154.26,18a36.33,36.33,0,0,1,5.63.43A20.3,20.3,0,0,1,165,19.8s1.8-.33,3.81-6.37a15.87,15.87,0,0,0,.78-6.65,12.75,12.75,0,0,0-.8-3.45l-.14-.21A46.38,46.38,0,0,0,162,1a40.8,40.8,0,0,0-9.9-1c-10,0-17.66,2.5-23.08,7.43-.4.37-.83.72-1.21,1.12q-8.19,8.55-8.19,23.07v78.92s2.85,3.46,10.9,3.46a17.89,17.89,0,0,0,10.32-3.46V55.29h26.21V37.62H140.87V31.91A23.24,23.24,0,0,1,141.51,26.35Z"/><path class="cls-13" d="M168.6,3.12A46.38,46.38,0,0,0,162,1a40.8,40.8,0,0,0-9.9-1c-10,0-17.66,2.5-23.08,7.43,24.1-8.4,36.67-2.67,40.49-.65a12.75,12.75,0,0,0-.8-3.45Z"/><path class="cls-14" d="M22.27,11.59c-.64-.9-3.45-4.19-10.39-4.19C1.82,7.4.21,11.82.21,11.82v98.72S3.83,114,11.88,114a19.07,19.07,0,0,0,10.55-3.46V11.82Z"/><path class="cls-15" d="M21.73,11.42l.34.17c-.64-.9-3.46-4.19-10.4-4.19C1.61,7.4,0,11.82,0,11.82v.82S7.65,7.4,21.73,11.42Z"/><path class="cls-16" d="M172.78,47.63l0,7.86c4-1.34,11.77-2.9,17-3.87Z"/><path class="cls-17" d="M189.74,51.62c-5.22,1-13,2.53-17,3.87l-.08,18.84-.15,36.21S174.8,114,182.84,114s10.91-3.46,10.91-3.46l.14-36.21L194,52.62Z"/><path class="cls-18" d="M189.74,50.62c-5.22,1-13,2.53-17,3.87l-.08,18.84h21.22L194,51.62Z"/><path class="cls-19" d="M176.91,37.54l.08,0Z"/><path class="cls-20" d="M176.91,37.54l.08,0Z"/><path class="cls-21" d="M229.64,47.47l-.57-.42Z"/><path class="cls-22" d="M229.64,47.47l-.57-.42Z"/><path class="cls-23" d="M234.12,50.86l-.5-.39Z"/><path class="cls-24" d="M234.12,50.86l-.5-.39Z"/><path class="cls-25" d="M238.14,54l-.2-.16Z"/><path class="cls-26" d="M238.14,54l-.2-.16Z"/><path class="cls-27" d="M231.66,49l-.4-.3Z"/><path class="cls-28" d="M231.66,49l-.4-.3Z"/><path class="cls-29" d="M236.14,52.42l-.5-.39Z"/><path class="cls-30" d="M236.14,52.42l-.5-.39Z"/><path class="cls-31" d="M177.8,37.3l.2-.06Z"/><path class="cls-32" d="M177.8,37.3l.2-.06Z"/><path class="cls-33" d="M240.07,55.53l-.39-.31Z"/><path class="cls-34" d="M240.07,55.53l-.39-.31Z"/><path class="cls-35" d="M177.22,37.45l.19-.05Z"/><path class="cls-36" d="M177.22,37.45l.19-.05Z"/><path class="cls-37" d="M243,57.86l-2.89-2.33Z"/><path class="cls-38" d="M243,57.86l-2.89-2.33Z"/><path class="cls-39" d="M235.64,52l-1.52-1.17Z"/><path class="cls-40" d="M235.64,52l-1.52-1.17Z"/><path class="cls-41" d="M239.68,55.22,238.14,54Z"/><path class="cls-42" d="M239.68,55.22,238.14,54Z"/><path class="cls-43" d="M237.94,53.84l-1.8-1.42Z"/><path class="cls-44" d="M237.94,53.84l-1.8-1.42Z"/><path class="cls-45" d="M176.81,37.57l.1,0Z"/><path class="cls-46" d="M176.81,37.57l.1,0Z"/><path class="cls-47" d="M177.41,37.4l.39-.1Z"/><path class="cls-48" d="M177.41,37.4l.39-.1Z"/><path class="cls-49" d="M177,37.52l.23-.07Z"/><path class="cls-50" d="M177,37.52l.23-.07Z"/><polygon class="cls-51" points="178 37.24 178 37.24 178 37.24 178 37.24"/><polygon class="cls-52" points="178 37.24 178 37.24 178 37.24 178 37.24"/><path class="cls-53" d="M231.26,48.68l-1.62-1.21Z"/><path class="cls-54" d="M231.26,48.68l-1.62-1.21Z"/><path class="cls-55" d="M229.07,47.05l-2-1.44Z"/><path class="cls-56" d="M229.07,47.05l-2-1.44Z"/><path class="cls-57" d="M233.62,50.47c-.65-.5-1.3-1-2-1.49C232.32,49.47,233,50,233.62,50.47Z"/><path class="cls-58" d="M233.62,50.47c-.65-.5-1.3-1-2-1.49C232.32,49.47,233,50,233.62,50.47Z"/><path class="cls-59" d="M287.43,39.58s-4-4-12.07-4-12.06,4-12.06,4l-5.75,6.93a8.71,8.71,0,0,0-.29,1.12C271.34,31.54,287.43,39.58,287.43,39.58Z"/><path class="cls-60" d="M290.83,95.78c-27.57.06-23.15-10-44.9-34.21l-.29-.38c-.9-1.17-1.79-2.27-2.68-3.33-7.71-9.21-15-14.62-22.44-17.78C210.23,36,195.91,34,178,37.24h0c-1.71.31-3.44.65-5.22,1.06l0,17.21s12.33-2.8,21.45-2.82c15.68,0,24.61,3.47,37,19.57l.29.37c24,27.24,26.08,41.32,56.25,41.26,0,0,2.48.13,4-6C293.85,99.8,290.83,95.78,290.83,95.78Z"/><path class="cls-61" d="M177.8,37.3l-.39.1-.19.05-.23.07-.08,0-.1,0s36.2-2,50.28,8l2,1.44.57.42,1.62,1.21.4.3c.66.49,1.31,1,2,1.49l.5.39L235.64,52l.5.39,1.8,1.42.2.16,1.54,1.22.39.31L243,57.86h0c-7.71-9.21-15-14.62-22.44-17.78C210.23,36,195.91,34,178,37.24h0Z"/></g></g></svg>