<svg xmlns="http://www.w3.org/2000/svg" xmlns:xlink="http://www.w3.org/1999/xlink" viewBox="0 0 296.74 56.94"><defs><style>.cls-1{fill:#fff;}.cls-2{fill:url(#linear-gradient);}.cls-3{fill:#e01d0e;}.cls-4{fill:url(#linear-gradient-2);}.cls-5{opacity:0.5;}.cls-6{fill:url(#linear-gradient-3);}.cls-7{opacity:0.7;}.cls-8{fill:url(#linear-gradient-4);}</style><linearGradient id="linear-gradient" x1="0.16" y1="29.81" x2="91.67" y2="29.81" gradientUnits="userSpaceOnUse"><stop offset="0" stop-color="#cc403b"/><stop offset="0.22" stop-color="#f98942"/><stop offset="0.35" stop-color="#f88741"/><stop offset="0.39" stop-color="#f6803e"/><stop offset="0.43" stop-color="#f17539"/><stop offset="0.45" stop-color="#eb6431"/><stop offset="0.48" stop-color="#e34e28"/><stop offset="0.49" stop-color="#df4323"/><stop offset="0.5" stop-color="#e34e28"/><stop offset="0.52" stop-color="#eb6431"/><stop offset="0.55" stop-color="#f17539"/><stop offset="0.59" stop-color="#f6803e"/><stop offset="0.64" stop-color="#f88741"/><stop offset="0.78" stop-color="#f98942"/><stop offset="0.83" stop-color="#f07e41"/><stop offset="0.93" stop-color="#d7613e"/><stop offset="0.96" stop-color="#cf583d"/></linearGradient><linearGradient id="linear-gradient-2" x1="0.31" y1="28.77" x2="91.52" y2="28.77" gradientUnits="userSpaceOnUse"><stop offset="0" stop-color="#1d8bb4"/><stop offset="0.02" stop-color="#2391b6"/><stop offset="0.12" stop-color="#39a9bc"/><stop offset="0.22" stop-color="#48b9c0"/><stop offset="0.33" stop-color="#51c3c2"/><stop offset="0.48" stop-color="#54c6c3"/><stop offset="0.62" stop-color="#50c2c2"/><stop offset="0.77" stop-color="#44b5bf"/><stop offset="0.93" stop-color="#31a0b9"/><stop offset="1" stop-color="#2593b6"/></linearGradient><linearGradient id="linear-gradient-3" x1="-326.7" y1="-4288.52" x2="-280.59" y2="-4271.17" gradientTransform="translate(-1730.65 -3877.21) rotate(159.84)" gradientUnits="userSpaceOnUse"><stop offset="0" stop-color="#fff" stop-opacity="0"/><stop offset="0.06" stop-color="#cae3e7" stop-opacity="0.21"/><stop offset="0.16" stop-color="#82bdc7" stop-opacity="0.49"/><stop offset="0.25" stop-color="#499fae" stop-opacity="0.71"/><stop offset="0.34" stop-color="#21899c" stop-opacity="0.87"/><stop offset="0.43" stop-color="#087c92" stop-opacity="0.97"/><stop offset="0.51" stop-color="#00788e"/></linearGradient><linearGradient id="linear-gradient-4" x1="-685.57" y1="-37.81" x2="-639.71" y2="-20.56" gradientTransform="translate(692.94 -184.87) rotate(-20.62)" gradientUnits="userSpaceOnUse"><stop offset="0" stop-color="#fff" stop-opacity="0"/><stop offset="0.07" stop-color="#faffff" stop-opacity="0.12"/><stop offset="0.21" stop-color="#ecffff" stop-opacity="0.44"/><stop offset="0.43" stop-color="#d7ffff" stop-opacity="0.93"/><stop offset="0.45" stop-color="#d4ffff"/><stop offset="0.51" stop-color="#daffff" stop-opacity="0.86"/><stop offset="0.65" stop-color="#e7ffff" stop-opacity="0.58"/><stop offset="0.77" stop-color="#f1ffff" stop-opacity="0.36"/><stop offset="0.87" stop-color="#f9ffff" stop-opacity="0.2"/><stop offset="0.95" stop-color="#fdffff" stop-opacity="0.11"/><stop offset="1" stop-color="#fff" stop-opacity="0.07"/></linearGradient></defs><title>LogoAsset 1</title><g id="Layer_2" data-name="Layer 2"><g id="Layer_1-2" data-name="Layer 1"><path class="cls-1" d="M156.08,13.63c0,.2-.33,1.35-.38,1.65l-7.28,28.66c-.64,1.77-1.74,3.44-4.94,3.44-2.81,0-4.62-1.67-4.85-3.44l-3.82-16.1-.8-3.41-.85,3.41s-2.77,11.9-4,16.2a5.22,5.22,0,0,1-4.77,3.34c-2.62,0-4.53-1.41-5-3.48C117.79,35.78,112,15,112,13.68c0-1.71,1.37-2.74,3.41-2.74,2.88,0,4.1,1.57,4.35,2.63l3.51,15.08c.4,1.7,1,4.41,1.55,7.22a73.73,73.73,0,0,1,1.71-7.22l3.8-15.4a3.87,3.87,0,0,1,4.06-2.69,4.11,4.11,0,0,1,3.95,2.58L142,28.65c.45,1.9,1.1,4.76,1.7,7.57.65-2.76,1.26-5.67,1.71-7.57l3.63-15a3.6,3.6,0,0,1,4.19-2.69C155.4,11.26,156.08,12,156.08,13.63Z"/><path class="cls-1" d="M164.1,20c-2.07,0-3.61.55-3.61,1.59V45.33c0,1.05,1.41,1.6,3.61,1.6s3.61-.55,3.61-1.6V21.58C167.71,20.54,166.3,20,164.1,20Z"/><path class="cls-1" d="M189.63,22.43c0,1.1-1.21,4-2.16,4-.55,0-2-1.05-4.31-1.05-1.66,0-2.66.5-2.66,1.75,0,2.21,3,2.71,5.67,4A7.09,7.09,0,0,1,190.53,38c0,5.12-3.56,8.58-9.83,8.58-3.76,0-8.33-1.25-8.33-3.41,0-1.3,1.66-3.86,2.66-3.86.75,0,2.41,1.4,5.07,1.4,1.9,0,2.91-.75,2.91-2.1,0-1.91-2.06-2.41-4.32-3.31-2.45-1-5.71-2.51-5.71-7.53,0-5.21,3.56-8.22,9.12-8.22C185,19.52,189.63,20.32,189.63,22.43Z"/><path class="cls-1" d="M216.66,32.46a3.31,3.31,0,0,1-.72,1.91,2.65,2.65,0,0,1-1.84,1.05H201.31c.35,4,2.51,5.26,5.77,5.26s5.36-1.55,6.07-1.55c1.1,0,2.6,2.81,2.6,3.81,0,2.51-6.22,3.61-9,3.61-9.08,0-13.09-5.27-13.09-13.34,0-9.88,5-13.69,12.18-13.69C213.7,19.52,216.66,25.49,216.66,32.46Zm-15.35-2h8.12c0-2.91-1.1-5.06-3.61-5.06C203.72,25.39,201.91,26.59,201.31,30.45Z"/><path class="cls-1" d="M251.31,28.6c0,11.33-5.72,17.55-16.05,17.55H224c-1.41,0-2-.6-2-2V13.05c0-1.41.6-2,2-2h11.23C245.59,11,251.31,17.26,251.31,28.6Zm-21.52-11v22h5.47c5.37,0,8.13-3.86,8.13-11s-2.76-11-8.13-11Z"/><path class="cls-1" d="M277.34,27.89v9.43a43.11,43.11,0,0,0,.6,7.27c0,1.21-4.37,1.61-5.62,1.61-1.6,0-1.7-2.11-2-3.46a8.71,8.71,0,0,1-7.37,3.81c-5.41,0-7.42-3.21-7.42-7.32s1.65-9.33,14.39-9.33V28.24c0-1.9-1.15-2.85-3.91-2.85-3.66,0-5.82,1.6-6.42,1.6-1.05,0-2.61-3-2.61-4,0-1.71,4-3.46,9.58-3.46C274.48,19.52,277.34,23,277.34,27.89ZM262.89,38.48c0,1.25.85,2.2,2.51,2.2a5.17,5.17,0,0,0,4.51-3.16V34.76C265.15,34.76,262.89,36.07,262.89,38.48Z"/><path class="cls-1" d="M292,15.15v4.77h2.46c1.05,0,1.5.75,1.5,2.51v.85c0,1.75-.45,2.51-1.5,2.51H292V38.53c0,1.5.5,2.15,1.8,2.15.46,0,1.06-.2,1.36-.2,1.66,0,1.55,2.47,1.55,3.61,0,2.31-3.26,2.46-4.81,2.46-4.72,0-7.32-2.56-7.32-8.12V25.79h-.81c-1.05,0-1.5-.76-1.5-2.51v-.85c0-1.76.45-2.51,1.5-2.51h.81l.65-4.77c.15-1.05,1.45-1.6,3.3-1.6C290.09,13.55,292,13.86,292,15.15Z"/><path class="cls-2" d="M75.36,45.3c-.38.47-.78.92-1.12,1.41a13.16,13.16,0,0,1-21.51.18c-3-4.1-5.88-8.26-8.83-12.38-1.09-1.53-2.22-3-3.4-4.63l-8.4-11.8c-2.05-2.8-5.32-2.7-7.36.12-4,5.54-7.95,11.09-11.93,16.63-1.66,2.31-3.28,4.65-5,6.9a4,4,0,0,1-4.48,1.38,4,4,0,0,1-3-3.39,5.24,5.24,0,0,1,1.28-4.34C7,27.75,12.45,20.11,18,12.52A13,13,0,0,1,36.4,10c1.52,1.21,10,12.89,10,12.89,4.31,6.05,8.66,12.08,13,18.11,1,1.39,2.11,2.58,4,2.54a4.48,4.48,0,0,0,3.8-2.12c.78-1,1.44-2.11,2.24-3.11l6-8.5c.51-.7.91-1.21,1.29-1.74,2.37-3.31,4.31-6.72,7.13-9.93a4.13,4.13,0,0,1,4.52-1.66,3.8,3.8,0,0,1,3.25,3.65,7.19,7.19,0,0,1-1.13,3.82c-2.22,3.36-4.65,6.58-7,9.85Z"/><path class="cls-3" d="M22.26,56.94C9.78,56.94.85,41.05.47,40.36a2.31,2.31,0,1,1,4-2.24h0c.08.15,8.36,14.82,18.4,14.18C30,51.84,37,43.45,43.17,28,50.39,9.85,58.76.43,68,0c13.34-.6,22.74,17.74,23.14,18.52a2.31,2.31,0,1,1-4.13,2.08c-.08-.16-8.46-16.45-18.82-16C61,5,53.86,13.64,47.46,29.74c-6.93,17.45-15.1,26.59-24.27,27.18Z"/><path class="cls-4" d="M71.84,11.48a33.92,33.92,0,0,0-13.65,2.95A49.4,49.4,0,0,0,43,25.23,45.9,45.9,0,0,1,28.68,35.45a29,29,0,0,1-11.46,2.46h0c-3.4,0-5.92-.91-8-1.31a7.29,7.29,0,0,1-2.11-.86l-.49-.25-.08-.05h0a4,4,0,0,0-2.1-.59,4.08,4.08,0,0,0-2.13,7.56,23.17,23.17,0,0,0,4.28,1.91,33,33,0,0,0,10.68,1.74h0A37,37,0,0,0,31.9,42.94,54,54,0,0,0,48.81,31,41.4,41.4,0,0,1,61.45,21.9a25.78,25.78,0,0,1,10.41-2.26,24.13,24.13,0,0,1,5.48.63,30,30,0,0,1,5.74,2.14,8.91,8.91,0,0,1,1.49.87l.34.23.06,0h0a4,4,0,0,0,2.46.84,4.08,4.08,0,0,0,2.5-7.31,25.71,25.71,0,0,0-5.12-2.88,32.54,32.54,0,0,0-5.61-1.87,32.17,32.17,0,0,0-7.34-.85h0"/><g class="cls-5"><path class="cls-6" d="M4.64,41.31s8.41,4.26,20.78,1.57C33,41.24,46.66,32.43,54,25.63A66.23,66.23,0,0,1,42.7,36.5,47.89,47.89,0,0,1,25,45.23a35.38,35.38,0,0,1-18.14-.68Z"/></g><g class="cls-7"><path class="cls-8" d="M38,30.73c7.32-6.86,18.56-14.89,28.82-16.92,9.6-1.9,20.18,4,20.18,4s-.66-3.08-.78-3.14A33.72,33.72,0,0,0,66.12,12c-8.25,1.32-15.43,6-20.32,10.47A83.24,83.24,0,0,0,38,30.73Z"/></g><path class="cls-3" d="M87.29,16.18A4.28,4.28,0,0,0,83.78,18c-.89,1.17-1.76,2.36-2.62,3.55.67.28,1.27.57,1.78.83.69.36,1.21.68,1.54.89l.34.23.06,0a4.26,4.26,0,0,0,5.91-.76A4.13,4.13,0,0,0,90,17l-.14-.11a6.07,6.07,0,0,0-1.41-.54,5.5,5.5,0,0,0-1.18-.14"/><path class="cls-3" d="M4.17,34.72A4.16,4.16,0,0,0,2,42.43a15,15,0,0,0,1.54.81,5.67,5.67,0,0,0,.9.08,3.91,3.91,0,0,0,3.21-1.58L11.3,37s-1.66-.3-2.24-.5a18.41,18.41,0,0,1-2.16-.88l-.5-.25-.09,0h0a4.08,4.08,0,0,0-2.14-.6"/><path class="cls-3" d="M81.91,6.12c5.58,5.22,9.37,12.06,9.37,12.45,0,1.28,0,2.49-1.13,3.07a2.32,2.32,0,0,1-3.1-1,46.45,46.45,0,0,0-8.17-11"/><path class="cls-3" d="M10.59,52.37C4.54,47.62-.06,40.53.33,40.14c.9-.91-.07-2.3,1-2.92a2.31,2.31,0,0,1,3.14.9h0a40.9,40.9,0,0,0,8.94,10.63"/></g></g></svg>