<svg xmlns="http://www.w3.org/2000/svg" style="display: none;"><symbol id="square" viewBox="0 0 24 24"><title>square</title><g><path d="m21.5 24h-19c-1.379 0-2.5-1.122-2.5-2.5v-19c0-1.378 1.121-2.5 2.5-2.5h19c1.379 0 2.5 1.122 2.5 2.5v19c0 1.378-1.121 2.5-2.5 2.5zm-19-23c-.827 0-1.5.673-1.5 1.5v19c0 .827.673 1.5 1.5 1.5h19c.827 0 1.5-.673 1.5-1.5v-19c0-.827-.673-1.5-1.5-1.5z"/></g><g><path d="m16.5 8h-9c-.276 0-.5-.224-.5-.5s.224-.5.5-.5h9c.276 0 .5.224.5.5s-.224.5-.5.5z"/></g><g><path d="m16.5 12.5h-9c-.276 0-.5-.224-.5-.5s.224-.5.5-.5h9c.276 0 .5.224.5.5s-.224.5-.5.5z"/></g><g><path d="m16.5 17h-9c-.276 0-.5-.224-.5-.5s.224-.5.5-.5h9c.276 0 .5.224.5.5s-.224.5-.5.5z"/></g></symbol><symbol id="server" viewBox="0 0 64 64"><title>server</title><path d="M28,9.0136003h-20c-0.5449004,0-0.9863005,0.4413996-0.9863005,0.9863997 c0,0.5448999,0.4414001,0.9863005,0.9863005,0.9863005h20c0.5449009,0,0.9862995-0.4414005,0.9862995-0.9863005 C28.9862995,9.4549999,28.5449009,9.0136003,28,9.0136003z"/><circle cx="52.9991989" cy="9.9990997" r="2.9991"/><path d="M60,0h-56C1.7908008,0,0.0000008,1.7908,0.0000008,4v12c0,2.2091007,1.7908,4,3.9999998,4h56c2.2090988,0,4-1.7908993,4-4 V4C64,1.7908,62.2090988,0,60,0z M62,16c0,1.1026993-0.8972015,2-2,2h-56c-1.1027997,0-1.9999998-0.8973007-1.9999998-2V4 c0-1.1029,0.8972001-2,1.9999998-2h56c1.1027985,0,2,0.8971,2,2V16z"/><path d="M28,31.0135994h-20c-0.5449004,0-0.9863005,0.4414005-0.9863005,0.9864006 c0,0.544899,0.4414001,0.9863014,0.9863005,0.9863014h20c0.5449009,0,0.9862995-0.4414024,0.9862995-0.9863014 C28.9862995,31.4549999,28.5449009,31.0135994,28,31.0135994z"/><circle cx="52.9991989" cy="31.9990997" r="2.9991"/><path d="M60,22h-56c-2.2091997,0-3.9999998,1.7908001-3.9999998,4v12c0,2.2090988,1.7908,4,3.9999998,4h56 c2.2090988,0,4-1.7909012,4-4V26C64,23.7908001,62.2090988,22,60,22z M62,38c0,1.1026993-0.8972015,2-2,2h-56 c-1.1027997,0-1.9999998-0.8973007-1.9999998-2V26c0-1.1028996,0.8972001-2,1.9999998-2h56c1.1027985,0,2,0.8971004,2,2V38z"/><path d="M28,53.0135994h-20c-0.5449004,0-0.9863005,0.4414024-0.9863005,0.9864006 c0,0.544899,0.4414001,0.9863014,0.9863005,0.9863014h20c0.5449009,0,0.9862995-0.4414024,0.9862995-0.9863014 C28.9862995,53.4550018,28.5449009,53.0135994,28,53.0135994z"/><circle cx="52.9991989" cy="53.9990997" r="2.9991"/><path d="M60,44h-56c-2.2091997,0-3.9999998,1.7907982-3.9999998,4v12c0,2.2090988,1.7908,4,3.9999998,4h56 c2.2090988,0,4-1.7909012,4-4V48C64,45.7907982,62.2090988,44,60,44z M62,60c0,1.1026993-0.8972015,2-2,2h-56 c-1.1027997,0-1.9999998-0.8973007-1.9999998-2V48c0-1.1029015,0.8972001-2,1.9999998-2h56c1.1027985,0,2,0.8970985,2,2V60z"/></symbol><symbol id="mail" viewBox="0 0 512 512"><title>mail</title><path d="M467,76H45C20.137,76,0,96.262,0,121v270c0,24.885,20.285,45,45,45h422c24.655,0,45-20.03,45-45V121 C512,96.306,491.943,76,467,76z M460.698,106c-9.194,9.145-167.415,166.533-172.878,171.967c-8.5,8.5-19.8,13.18-31.82,13.18 s-23.32-4.681-31.848-13.208C220.478,274.284,64.003,118.634,51.302,106H460.698z M30,384.894V127.125L159.638,256.08L30,384.894z M51.321,406l129.587-128.763l22.059,21.943c14.166,14.166,33,21.967,53.033,21.967c20.033,0,38.867-7.801,53.005-21.939 l22.087-21.971L460.679,406H51.321z M482,384.894L352.362,256.08L482,127.125V384.894z"/></symbol><symbol id="place" viewBox="0 0 512 512"><title>place</title><g> <g> <path d="M425.951,89.021C386.864,32.451,324.917,0,256.006,0S125.148,32.451,86.061,89.021 c-38.895,56.284-47.876,127.541-24.072,190.496c6.367,17.192,16.488,33.895,30.01,49.547l150.378,176.634 c3.401,3.998,8.384,6.302,13.629,6.302c5.245,0,10.228-2.303,13.629-6.302l150.336-176.586 c13.582-15.742,23.69-32.427,30.004-49.481C473.827,216.562,464.846,145.305,425.951,89.021z M416.451,267.093 c-4.869,13.158-12.818,26.167-23.613,38.68c-0.03,0.03-0.06,0.06-0.084,0.096L256.006,466.487L119.174,305.768 c-10.789-12.502-18.738-25.51-23.655-38.794c-19.686-52.065-12.215-110.981,19.991-157.592 c32.307-46.76,83.519-73.578,140.496-73.578c56.976,0,108.182,26.817,140.49,73.578 C428.708,155.993,436.185,214.909,416.451,267.093z"/> </g> </g><g> <g> <path d="M256.006,106.219c-55.276,0-100.252,44.97-100.252,100.252s44.97,100.252,100.252,100.252s100.252-44.97,100.252-100.252 C356.258,151.195,311.282,106.219,256.006,106.219z M256.006,270.918c-35.536,0-64.448-28.912-64.448-64.448 c0-35.536,28.912-64.448,64.448-64.448c35.536,0,64.448,28.912,64.448,64.448S291.542,270.918,256.006,270.918z"/> </g> </g></symbol><symbol id="book" viewBox="0 0 480 480"><title>book</title><path d="M472,88.014h-32v-40c0.016-4.418-3.553-8.013-7.972-8.028c-0.234-0.001-0.467,0.009-0.7,0.028l-20.872,1.76 c-50.615,4.186-100.259,16.291-147.12,35.872L240,87.35l-23.312-9.672c-46.866-19.584-96.516-31.691-147.136-35.88l-20.88-1.784 c-4.403-0.371-8.273,2.897-8.644,7.3c-0.02,0.233-0.029,0.467-0.028,0.7v40H8c-4.418,0-8,3.582-8,8v336c0,4.418,3.582,8,8,8h464 c4.418,0,8-3.582,8-8v-336C480,91.596,476.418,88.014,472,88.014z M16,424.03V104.014h24v280c-0.015,4.166,3.169,7.646,7.32,8 l21.528,1.84c5.867,0.491,11.733,1.096,17.6,1.816c1.96,0.232,3.904,0.544,5.864,0.8c3.88,0.52,7.76,1.04,11.624,1.656 c2.304,0.368,4.6,0.8,6.896,1.208c3.504,0.616,7.008,1.232,10.496,1.92c2.4,0.48,4.8,1.008,7.2,1.528 c3.368,0.72,6.736,1.456,10.088,2.256c2.4,0.576,4.84,1.192,7.256,1.808c3.304,0.848,6.6,1.712,9.888,2.624 c2.4,0.672,4.8,1.376,7.2,2.08c3.264,0.965,6.52,1.968,9.768,3.008c2.379,0.757,4.752,1.536,7.12,2.336 c3.272,1.096,6.52,2.248,9.768,3.424c2.304,0.8,4.616,1.672,6.904,2.544c0.992,0.376,1.976,0.8,2.96,1.168H16z M232,420.014 l-14.752-6.16c-46.83-19.62-96.45-31.768-147.048-36L56,376.67V56.718l12.208,1.024c48.966,4.046,96.993,15.754,142.328,34.696 L232,101.35V420.014z M248,420.014V101.35l21.488-8.92c45.327-18.938,93.346-30.643,142.304-34.688L424,56.718v319.928 l-13.144,1.072c-50.629,4.203-100.293,16.279-147.2,35.792L248,420.014z M464,424.014H280.64c1.096-0.424,2.184-0.872,3.28-1.288 c2.4-0.92,4.8-1.792,7.256-2.664c3.136-1.136,6.285-2.237,9.448-3.304c2.464-0.8,4.944-1.6,7.416-2.4 c3.16-1.008,6.336-1.968,9.512-2.912c2.496-0.736,5-1.464,7.504-2.152c3.2-0.896,6.4-1.736,9.68-2.56 c2.48-0.632,4.968-1.264,7.464-1.856c3.328-0.8,6.68-1.52,10.032-2.232c2.4-0.52,4.8-1.056,7.248-1.536 c3.52-0.696,7.056-1.312,10.584-1.928c2.288-0.4,4.568-0.8,6.864-1.2c3.944-0.624,7.896-1.16,11.856-1.688 c1.896-0.248,3.792-0.552,5.696-0.8c5.867-0.709,11.763-1.315,17.688-1.816l20.488-1.664c4.16-0.342,7.358-3.826,7.344-8v-280h24 V424.014z"/></symbol><symbol id="browser" viewBox="0 -26 512 512"><title>browser</title><path d="m166 50c0 5.523438-4.476562 10-10 10s-10-4.476562-10-10 4.476562-10 10-10 10 4.476562 10 10zm0 0"/><path d="m126 50c0 5.523438-4.476562 10-10 10s-10-4.476562-10-10 4.476562-10 10-10 10 4.476562 10 10zm0 0"/><path d="m86 50c0 5.523438-4.476562 10-10 10s-10-4.476562-10-10 4.476562-10 10-10 10 4.476562 10 10zm0 0"/><path d="m436 140h-360c-5.523438 0-10 4.476562-10 10v60c0 5.523438 4.476562 10 10 10h360c5.523438 0 10-4.476562 10-10v-60c0-5.523438-4.476562-10-10-10zm-10 60h-340v-40h340zm0 0"/><path d="m256 260h-180c-5.523438 0-10 4.476562-10 10v120c0 5.523438 4.476562 10 10 10h180c5.523438 0 10-4.476562 10-10v-120c0-5.523438-4.476562-10-10-10zm-10 120h-160v-100h160zm0 0"/><path d="m436 260h-120c-5.523438 0-10 4.476562-10 10v120c0 5.523438 4.476562 10 10 10h120c5.523438 0 10-4.476562 10-10v-120c0-5.523438-4.476562-10-10-10zm-10 120h-100v-100h100zm0 0"/><path d="m266 10c0 5.523438-4.476562 10-10 10s-10-4.476562-10-10 4.476562-10 10-10 10 4.476562 10 10zm0 0"/><path d="m482 0h-181c-5.523438 0-10 4.476562-10 10s4.476562 10 10 10h181c5.515625 0 10 4.484375 10 10v50h-472v-50c0-5.515625 4.484375-10 10-10h181c5.523438 0 10-4.476562 10-10s-4.476562-10-10-10h-181c-16.542969 0-30 13.457031-30 30v400c0 16.542969 13.457031 30 30 30h452c16.542969 0 30-13.457031 30-30v-400c0-16.542969-13.457031-30-30-30zm0 440h-452c-5.515625 0-10-4.484375-10-10v-330h472v330c0 5.515625-4.484375 10-10 10zm0 0"/></symbol><symbol id="tools" viewBox="0 0 511 511.99968"><title>tools</title><path d="m347.339844 155.148438c-5.519532 0-10 4.46875-10 9.996093 0 5.523438 4.480468 10 10 10 5.53125 0 10-4.476562 10-10 0-5.527343-4.46875-9.996093-10-9.996093zm0 0"/><path d="m165.644531 336.839844c-5.53125 0-10 4.480468-10 10 0 5.53125 4.46875 10 10 10 5.519531 0 10-4.46875 10-10 0-5.519532-4.480469-10-10-10zm0 0"/><path d="m500.058594 61.519531c-3.375-.785156-6.921875.234375-9.359375 2.695313l-41.457031 41.785156h-19.875l-21.878907-22.667969v-20.152343l40.863281-41.472657c2.417969-2.453125 3.402344-5.980469 2.601563-9.335937-.796875-3.351563-3.265625-6.054688-6.53125-7.15625-10.265625-3.460938-21.007813-5.214844-31.933594-5.214844-32.570312 0-62.160156 15.1875-81.183593 41.667969-17.804688 24.789062-23.292969 55.167969-15.429688 84.242187l-73.660156 73.660156-122.71875-123v-24.140624c0-3.511719-1.84375-6.769532-4.855469-8.574219l-70.707031-42.429688c-3.9375-2.363281-8.972656-1.742187-12.214844 1.503907l-28.28125 28.277343c-3.242188 3.246094-3.863281 8.28125-1.503906 12.21875l42.421875 70.707031c1.804687 3.011719 5.058593 4.851563 8.570312 4.855469l24.132813.007813 122.730468 123-73.378906 73.378906c-29.074218-7.859375-59.46875-2.363281-84.269531 15.453125-26.464844 19.011719-41.640625 48.59375-41.640625 81.164063 0 10.921874 1.753906 21.667968 5.214844 31.929687 1.105468 3.285156 3.835937 5.765625 7.210937 6.546875 3.378907.785156 6.921875-.234375 9.363281-2.695312l41.453126-41.78125h19.984374l22.769532 22.769531v19.984375l-41.78125 41.453125c-2.460938 2.441406-3.480469 5.984375-2.695313 9.363281.78125 3.375 3.261719 6.105469 6.546875 7.210938 10.261719 3.460937 21.007813 5.214843 31.929688 5.214843 32.570312 0 62.148437-15.179687 81.164062-41.644531 17.816406-24.800781 23.3125-55.191406 15.453125-84.265625l58.933594-58.933594 13.5 14.664063-6.195313 6.191406c-3.90625 3.90625-3.90625 10.238281 0 14.144531 3.90625 3.902344 10.234376 3.902344 14.144532 0l5.609375-5.609375 126.664062 137.585938c.09375.101562.191407.199218.289063.296875 23.4375 23.4375 61.410156 23.445312 84.859375-.003907 23.382812-23.394531 23.382812-61.460937 0-84.855468-.101563-.101563-.207031-.199219-.3125-.296875l-137.800781-126.421875 5.546874-5.546875c3.90625-3.902344 3.90625-10.234375 0-14.140625s-10.234374-3.90625-14.144531 0l-6.152343 6.15625-14.691407-13.484375 59.21875-59.21875c8.417969 2.25 17.105469 3.390625 25.90625 3.390625 55.140625 0 99.996094-44.859375 99.996094-99.996094 0-10.925781-1.753906-21.667969-5.214844-31.933594-1.105469-3.285156-3.835937-5.765625-7.210937-6.546875zm-411.773438 40.414063c-1.875-1.878906-4.417968-2.835938-7.074218-2.835938l-22.617188-.007812-35.492188-59.257813 17.238282-17.238281 59.15625 35.5v22.617188c0 2.648437 1.050781 5.1875 2.921875 7.0625l125.65625 125.941406-14.144531 14.140625zm254.363282 195.0625 138.269531 126.847656c15.445312 15.609375 15.398437 40.882812-.144531 56.433594-15.578126 15.578125-40.796876 15.625-56.4375.136718l-127.078126-138.035156zm-14.75-13.535156-44.199219 44.191406-13.5-14.664063 43.007812-43.011719zm84.589843-103.464844c-8.746093 0-17.347656-1.402344-25.558593-4.167969-3.597657-1.207031-7.574219-.277344-10.261719 2.40625-50.132813 50.132813-158.15625 158.152344-197.933594 197.933594-2.6875 2.6875-3.621094 6.664062-2.40625 10.265625 8.3125 24.683594 4.335937 51.011718-10.914063 72.242187-15.207031 21.167969-38.871093 33.3125-64.917968 33.3125-2.925782 0-5.835938-.160156-8.71875-.46875l31.761718-31.515625c1.890626-1.875 2.957032-4.429687 2.957032-7.097656v-28.289062c0-2.652344-1.054688-5.195313-2.929688-7.070313l-28.628906-28.628906c-1.875-1.875-4.417969-2.929688-7.070312-2.929688h-28.289063c-2.667969 0-5.222656 1.066407-7.101563 2.957031l-31.511718 31.761719c-.3125-2.882812-.46875-5.792969-.46875-8.71875 0-26.050781 12.140625-49.710937 33.3125-64.917969 21.226562-15.25 47.558594-19.230468 72.246094-10.914062 3.597656 1.214844 7.574218.28125 10.261718-2.40625.550782-.546875 197.792969-197.792969 197.933594-197.933594 2.6875-2.6875 3.617188-6.660156 2.40625-10.261718-8.316406-24.683594-4.347656-51.003907 10.890625-72.21875 15.21875-21.1875 38.886719-33.335938 64.9375-33.335938 3.015625 0 6.011719.167969 8.980469.496094l-31.101563 31.566406c-1.84375 1.871094-2.875 4.390625-2.875 7.015625v28.289063c0 2.59375 1.003907 5.082031 2.804688 6.945312l27.628906 28.628906c1.882813 1.953125 4.480469 3.054688 7.195313 3.054688h28.289062c2.664062 0 5.21875-1.0625 7.097656-2.957032l31.511719-31.757812c.3125 2.882812.46875 5.792969.46875 8.71875 0 44.109375-35.886719 79.996094-79.996094 79.996094zm0 0"/><path d="m311.988281 186.355469-125.136719 125.136719c-3.902343 3.902343-3.902343 10.234374 0 14.140624 3.90625 3.90625 10.238282 3.90625 14.144532 0l125.136718-125.136718c3.90625-3.902344 3.90625-10.234375 0-14.140625s-10.238281-3.90625-14.144531 0zm0 0"/><path d="m438.355469 452c3.90625 3.894531 10.238281 3.894531 14.144531-.023438 3.898438-3.910156 3.886719-10.242187-.023438-14.140624l-90.136718-89.847657c-3.910156-3.898437-10.246094-3.886719-14.140625.023438-3.902344 3.914062-3.890625 10.242187.019531 14.140625zm0 0"/></symbol><symbol id="loupe" viewBox="0 0 512 512"><title>loupe</title><g> <g> <path d="M310,190c-5.52,0-10,4.48-10,10s4.48,10,10,10c5.52,0,10-4.48,10-10S315.52,190,310,190z"/> </g> </g><g> <g> <path d="M500.281,443.719l-133.48-133.48C388.546,277.485,400,239.555,400,200C400,89.72,310.28,0,200,0S0,89.72,0,200 s89.72,200,200,200c39.556,0,77.486-11.455,110.239-33.198l36.895,36.895c0.005,0.005,0.01,0.01,0.016,0.016l96.568,96.568 C451.276,507.838,461.319,512,472,512c10.681,0,20.724-4.162,28.278-11.716C507.837,492.731,512,482.687,512,472 S507.837,451.269,500.281,443.719z M305.536,345.727c0,0.001-0.001,0.001-0.002,0.002C274.667,368.149,238.175,380,200,380 c-99.252,0-180-80.748-180-180S100.748,20,200,20s180,80.748,180,180c0,38.175-11.851,74.667-34.272,105.535 C334.511,320.988,320.989,334.511,305.536,345.727z M326.516,354.793c10.35-8.467,19.811-17.928,28.277-28.277l28.371,28.371 c-8.628,10.183-18.094,19.65-28.277,28.277L326.516,354.793z M486.139,486.139c-3.78,3.78-8.801,5.861-14.139,5.861 s-10.359-2.081-14.139-5.861l-88.795-88.795c10.127-8.691,19.587-18.15,28.277-28.277l88.798,88.798 C489.919,461.639,492,466.658,492,472C492,477.342,489.919,482.361,486.139,486.139z"/> </g> </g><g> <g> <path d="M200,40c-88.225,0-160,71.775-160,160s71.775,160,160,160s160-71.775,160-160S288.225,40,200,40z M200,340 c-77.196,0-140-62.804-140-140S122.804,60,200,60s140,62.804,140,140S277.196,340,200,340z"/> </g> </g><g> <g> <path d="M312.065,157.073c-8.611-22.412-23.604-41.574-43.36-55.413C248.479,87.49,224.721,80,200,80c-5.522,0-10,4.478-10,10 c0,5.522,4.478,10,10,10c41.099,0,78.631,25.818,93.396,64.247c1.528,3.976,5.317,6.416,9.337,6.416 c1.192,0,2.405-0.215,3.584-0.668C311.472,168.014,314.046,162.229,312.065,157.073z"/> </g> </g></symbol><symbol id="wifi" viewBox="0 0 512.001 512.001"><title>wifi</title><g> <g> <circle cx="255.001" cy="433.5" r="33"/> </g> </g><g> <g> <path d="M506.632,154.864C440.902,84.341,351.895,45.501,255.997,45.5C160.107,45.501,71.1,84.341,5.369,154.864 c-7.53,8.08-7.085,20.736,0.995,28.267c8.081,7.53,20.736,7.086,28.267-0.995C92.711,119.82,171.327,85.501,256.004,85.5 c84.67,0.001,163.286,34.32,221.366,96.636c3.939,4.226,9.28,6.364,14.635,6.364c4.883,0,9.778-1.778,13.632-5.369 C513.717,175.599,514.163,162.944,506.632,154.864z"/> </g> </g><g> <g> <path d="M433.194,237.458c-48.587-48.954-111.516-75.913-177.196-75.911c-65.695,0.001-128.625,26.961-177.197,75.913 c-7.78,7.841-7.731,20.504,0.11,28.284c7.841,7.78,20.504,7.731,28.284-0.11c41.005-41.326,93.851-64.086,148.803-64.087 c54.938-0.002,107.784,22.759,148.804,64.089c3.91,3.939,9.052,5.911,14.196,5.911c5.092,0,10.188-1.934,14.09-5.805 C440.927,257.961,440.975,245.298,433.194,237.458z"/> </g> </g><g> <g> <path d="M353.151,320.292c-26.02-25.779-63.317-41.792-97.339-41.792c-0.004,0-0.011,0-0.015,0h-1.441c-0.006,0-0.009,0-0.015,0 c-34.023,0-71.323,16.014-97.342,41.792c-7.846,7.774-7.905,20.437-0.131,28.284c3.911,3.947,9.059,5.924,14.208,5.924 c5.087,0,10.176-1.929,14.075-5.792c18.523-18.352,45.68-30.208,69.192-30.208c0.003,0,0.007,0,0.01,0h1.447 c0.004,0,0.005,0,0.009,0c23.509,0,50.668,11.857,69.189,30.208c7.846,7.773,20.511,7.717,28.284-0.132 C361.057,340.73,360.998,328.066,353.151,320.292z"/> </g> </g></symbol><symbol id="phone" viewBox="0 0 512.021 512.021"><title>phone</title><path d="m367.988 512.021c-16.528 0-32.916-2.922-48.941-8.744-70.598-25.646-136.128-67.416-189.508-120.795s-95.15-118.91-120.795-189.508c-8.241-22.688-10.673-46.108-7.226-69.612 3.229-22.016 11.757-43.389 24.663-61.809 12.963-18.501 30.245-33.889 49.977-44.5 21.042-11.315 44.009-17.053 68.265-17.053 7.544 0 14.064 5.271 15.645 12.647l25.114 117.199c1.137 5.307-.494 10.829-4.331 14.667l-42.913 42.912c40.482 80.486 106.17 146.174 186.656 186.656l42.912-42.913c3.838-3.837 9.361-5.466 14.667-4.331l117.199 25.114c7.377 1.581 12.647 8.101 12.647 15.645 0 24.256-5.738 47.224-17.054 68.266-10.611 19.732-25.999 37.014-44.5 49.977-18.419 12.906-39.792 21.434-61.809 24.663-6.899 1.013-13.797 1.518-20.668 1.519zm-236.349-479.321c-31.995 3.532-60.393 20.302-79.251 47.217-21.206 30.265-26.151 67.49-13.567 102.132 49.304 135.726 155.425 241.847 291.151 291.151 34.641 12.584 71.866 7.64 102.132-13.567 26.915-18.858 43.685-47.256 47.217-79.251l-95.341-20.43-44.816 44.816c-4.769 4.769-12.015 6.036-18.117 3.168-95.19-44.72-172.242-121.772-216.962-216.962-2.867-6.103-1.601-13.349 3.168-18.117l44.816-44.816z"/></symbol><symbol id="right" viewBox="0 0 512 512"><title>right</title><path d="M508.875,248.458l-160-160c-4.167-4.167-10.917-4.167-15.083,0c-4.167,4.167-4.167,10.917,0,15.083l141.792,141.792 H10.667C4.771,245.333,0,250.104,0,256s4.771,10.667,10.667,10.667h464.917L333.792,408.458c-4.167,4.167-4.167,10.917,0,15.083 c2.083,2.083,4.813,3.125,7.542,3.125c2.729,0,5.458-1.042,7.542-3.125l160-160C513.042,259.375,513.042,252.625,508.875,248.458z "/></symbol></svg>